<?xml version="1.0" encoding="UTF-8"?><svg id="Layer_2" xmlns="http://www.w3.org/2000/svg" viewBox="0 0 4884.68 3806.27"><defs><style>.cls-1{fill:#9b0d0d;}</style></defs><polygon points="903.44 2430.34 925.19 2562.94 1546.78 2791.37 2037.83 2486.8 1863.78 2303.43 978.03 2326.74 903.44 2430.34"/><polygon points="2083.8 992.64 1913.95 853.28 1897.94 636.22 2140.53 530.01 2242.1 406.73 2412.74 0 2530.43 564.53 2461.13 805.28 2301.67 992.64 2083.8 992.64"/><polygon points="545.59 2796.73 437.87 2904.45 132.46 2950.03 46.8 2621.7 200.53 2467.97 215.7 2188.85 351.84 2003.21 619.12 2256.67 632.39 2373.49 1598.07 2731.27 1235.09 2971.4 545.59 2796.73"/><polygon points="432.38 3703.41 408.83 3511.62 224 3383.18 207.29 3188.23 382.31 3078.85 585.41 3158.18 2185.47 2352.21 2195.06 2233.26 2454.26 2032.97 2642.99 2178.65 2694.4 2377.76 2679.24 2473.76 2827.8 2633.18 2648.35 2851.88 2381.21 2757.35 2353.67 2735.94 794.6 3464.09 797.66 3675.67 624.75 3767.53 432.38 3703.41"/><polygon points="2196.74 3333.16 1463.26 3049.86 1926.09 2855.59 2363.22 3004.4 2583.54 2905.41 2843.94 3035.61 2726.57 3231.22 2609.49 3322.61 2550.4 3569.39 2262.86 3608.1 2196.74 3333.16"/><polygon points="597.92 1008.18 453.9 851.46 392.23 572.12 542.65 6.54 701.24 470.11 830.3 573.86 1048.12 645.07 989.85 888.76 823.51 1008.18 597.92 1008.18"/><polygon points="1146.93 2560.87 1128.43 2445.3 1049.63 2553.39 807.11 2480.07 794.55 2163.44 584.29 2076.06 381.16 1832.31 398.3 1359.32 576.19 901.9 764.39 909.43 918.58 815.08 926.67 743.64 690.34 619.85 1119.22 449.33 1547.87 390.43 1939.97 454.1 2172.42 605.19 2027.1 718.72 2049.42 796.82 2152.21 888.19 2204.66 892.96 2358.36 810.62 2499.02 1310.74 2528.32 1580.93 2517.83 1902.64 2344.28 2087.5 2145.09 2185.69 2122.85 2468.48 1888.84 2552.48 1862.72 2505.17 1859.82 2569.9 1554.68 2602.59 1503.22 2457.72 1432.97 2624.44 1146.93 2560.87"/><polygon class="cls-1" points="589.54 3245.68 2261.6 2403.44 2271.96 2274.94 2454.29 2134.05 2572.39 2225.21 2612.79 2381.68 2594.14 2499.78 2721.57 2636.53 2622.12 2757.74 2420.1 2686.26 2364.16 2642.75 713.86 3413.51 716.96 3627.96 617.51 3680.79 505.63 3643.49 483.87 3466.34 300.5 3338.92 291.18 3230.14 390.63 3167.98 589.54 3245.68"/><polygon class="cls-1" points="278.75 2502.89 294.29 2216.96 362.66 2123.72 542.92 2294.66 558.46 2431.41 1422.46 2751.52 1220.45 2885.16 521.17 2708.01 399.96 2829.22 191.73 2860.3 135.78 2645.85 278.75 2502.89"/><polygon class="cls-1" points="1981.88 686.8 2190.12 595.63 2311.32 448.52 2386.95 268.27 2448.07 561.45 2389.02 766.57 2264.71 912.64 2112.42 912.64 1991.21 813.19 1981.88 686.8"/><polygon class="cls-1" points="1677.31 3046.78 1929.05 2941.11 2367.27 3090.29 2581.71 2993.94 2730.89 3068.53 2665.63 3177.31 2538.2 3276.76 2485.37 3497.42 2323.76 3519.18 2264.71 3273.65 1677.31 3046.78"/><polygon class="cls-1" points="449.79 1795.29 465.33 1366.39 617.62 974.8 773.01 981.01 981.24 853.59 999.89 688.87 869.36 620.5 1127.31 517.93 1534.45 461.99 1898.08 521.04 2022.39 601.85 1922.94 679.55 1966.45 831.83 2106.31 956.15 2208.87 965.47 2295.89 918.86 2407.77 1316.67 2435.75 1574.62 2426.42 1860.55 2283.46 2012.84 2056.47 2124.73 2034.72 2401.33 1913.51 2444.84 1792.41 2205.53 1779.87 2485.24 1602.72 2575.37 1497.16 2227.29 1375.84 2575.37 1201.8 2534.97 1164.61 2233.5 1006 2451.06 872.36 2410.65 860.03 2099.86 620.72 2000.41 449.79 1795.29"/><polygon class="cls-1" points="633.05 928.18 797.77 928.18 918.98 841.16 953.17 698.19 791.55 645.36 633.05 517.93 552.24 281.73 474.55 573.88 527.38 813.19 633.05 928.18"/><path d="M661.31,1627.57c0-9.32,62.16-239.31,62.16-239.31l208.23-102.56,229.99,111.88,90.13,338.76-233.09,158.5-211.34-6.22-114.99-102.56-31.08-158.5Z"/><polygon points="1708.68 1773.64 1733.54 1434.87 1960.42 1263.94 2153.11 1288.8 2268.1 1472.17 2289.86 1736.34 2035.01 1901.06 1879.61 1835.8 1708.68 1773.64"/><polygon points="1357.49 1957 1460.05 1689.72 1590.58 2000.51 1469.37 1938.36 1357.49 1957"/><polygon points="1441.4 1298.13 1286 1043.28 1304.65 785.32 1469.37 729.38 1599.9 800.86 1609.23 1043.28 1441.4 1298.13"/></svg>
